<svg width="20" height="18" viewBox="0 0 20 18" fill="none" xmlns="http://www.w3.org/2000/svg">
<path fill-rule="evenodd" clip-rule="evenodd" d="M6.16067 0.5C5.0841 0.5 4.09007 1.07686 3.55594 2.01158L2.07853 4.59705L1.64021 4.23178C1.21593 3.87821 0.585368 3.93554 0.231804 4.35982C-0.12176 4.78409 -0.0644363 5.41466 0.359841 5.76822L1.07076 6.36065L0.658809 7.08156C0.227102 7.83705 2.51024e-05 8.69212 2.51024e-05 9.56226V15.5C2.51024e-05 16.6046 0.895456 17.5 2.00003 17.5C3.10459 17.5 4.00003 16.6046 4.00003 15.5H16C16 16.6046 16.8955 17.5 18 17.5C19.1046 17.5 20 16.6046 20 15.5V9.56226C20 8.69212 19.7729 7.83705 19.3412 7.08156L18.9293 6.36065L19.6402 5.76822C20.0645 5.41466 20.1218 4.78409 19.7682 4.35982C19.4147 3.93554 18.7841 3.87821 18.3598 4.23178L17.9215 4.59705L16.4441 2.01158C15.91 1.07686 14.9159 0.5 13.8394 0.5H6.16067ZM15.638 6.5L16.3611 5.89741L14.7076 3.00386C14.5296 2.69229 14.1982 2.5 13.8394 2.5H6.16067C5.80181 2.5 5.47047 2.69229 5.29243 3.00386L3.63897 5.89741L4.36208 6.5H15.638ZM4.5 9.5C3.67157 9.5 3 10.1716 3 11C3 11.8284 3.67157 12.5 4.5 12.5C5.32843 12.5 6 11.8284 6 11C6 10.1716 5.32843 9.5 4.5 9.5ZM15.5 9.5C14.6716 9.5 14 10.1716 14 11C14 11.8284 14.6716 12.5 15.5 12.5C16.3284 12.5 17 11.8284 17 11C17 10.1716 16.3284 9.5 15.5 9.5Z" fill="black"/>
</svg>
