<svg width="20" height="20" viewBox="0 0 20 20" fill="none" xmlns="http://www.w3.org/2000/svg">
<path fill-rule="evenodd" clip-rule="evenodd" d="M10.8385 8.04846e-07H9.16146C8.63432 -1.63023e-05 8.17954 -3.10596e-05 7.80497 0.030572C7.40963 0.062873 7.01641 0.134189 6.63803 0.326983C6.07354 0.614603 5.6146 1.07354 5.32698 1.63803C5.13419 2.01641 5.06287 2.40963 5.03057 2.80497C5.00303 3.14211 5.00029 3.54422 5.00003 4.00559C3.64991 4.02389 2.8394 4.10205 2.18404 4.43598C1.43139 4.81947 0.819467 5.43139 0.435974 6.18404C0.102051 6.8394 0.0238879 7.6499 0.0055916 9H19.9944C19.9761 7.6499 19.8979 6.8394 19.564 6.18404C19.1805 5.43139 18.5686 4.81947 17.816 4.43598C17.1606 4.10205 16.3501 4.02389 15 4.00559C14.9997 3.54422 14.997 3.14211 14.9694 2.80497C14.9371 2.40963 14.8658 2.01641 14.673 1.63803C14.3854 1.07354 13.9265 0.614603 13.362 0.326983C12.9836 0.134189 12.5904 0.062873 12.195 0.030572C11.8205 -3.10596e-05 11.3657 -1.63023e-05 10.8385 8.04846e-07ZM12.9999 4C12.9995 3.5349 12.9964 3.21698 12.9761 2.96784C12.9539 2.69618 12.9162 2.59546 12.891 2.54601C12.7951 2.35785 12.6422 2.20487 12.454 2.109C12.4045 2.0838 12.3038 2.04613 12.0322 2.02393C11.7488 2.00078 11.3766 2 10.8 2H9.2C8.62345 2 8.25117 2.00078 7.96784 2.02393C7.69617 2.04613 7.59546 2.0838 7.54601 2.109C7.35785 2.20487 7.20487 2.35785 7.109 2.54601C7.0838 2.59546 7.04612 2.69618 7.02393 2.96784C7.00357 3.21698 7.00052 3.5349 7.00007 4H12.9999Z" fill="black"/>
<path d="M16 11H20V13.6C20 15.8402 20 16.9603 19.564 17.816C19.1805 18.5686 18.5686 19.1805 17.816 19.564C16.9603 20 15.8402 20 13.6 20H6.4C4.15979 20 3.03969 20 2.18404 19.564C1.43139 19.1805 0.819467 18.5686 0.435974 17.816C0 16.9603 0 15.8402 0 13.6V11H4V12C4 12.5523 4.44772 13 5 13C5.55228 13 6 12.5523 6 12V11H14V12C14 12.5523 14.4477 13 15 13C15.5523 13 16 12.5523 16 12V11Z" fill="black"/>
</svg>
