<svg width="40" height="40" viewBox="0 0 40 40" fill="none" xmlns="http://www.w3.org/2000/svg">
<circle cx="20" cy="20" r="20" fill="#E12972"/>
<path fill-rule="evenodd" clip-rule="evenodd" d="M20.0552 28.9062L20.0901 28.8645L29.0471 19.2684C30.0411 18.2022 30.7128 17.6292 29.7771 16.5136L27.8358 14.1952L23.037 13H17.0734L12.2862 14.2066L10.2983 16.5706C9.60335 17.394 10.244 18.3691 10.9817 19.1583L20.0202 28.8645L20.0552 28.9062Z" fill="white"/>
<path fill-rule="evenodd" clip-rule="evenodd" d="M27.6956 14.6113C26.6744 15.3094 25.3932 15.613 24.0926 15.8787L25.7931 15.7307C26.2357 15.6927 26.5696 15.6396 26.8802 15.9431L28.3711 17.4116L27.4626 15.8028C27.2762 15.4688 27.2685 15.4802 27.4393 15.1349L27.6956 14.6113ZM12.0217 18.8041L13.7416 19.1836C14.2658 19.2974 15.0928 19.1836 15.3257 18.7207L16.1799 17.0208C16.1061 18.1818 15.4655 19.5858 16.8283 19.8552L19.3364 20.7089C18.2454 20.6254 17.2476 20.3295 16.7933 20.5913C16.2576 20.8873 16.5798 21.3768 16.739 21.7296L18.9715 26.7914C17.5543 24.2567 16.3158 22.3064 14.5337 20.6407C13.7326 19.9825 12.8939 19.3693 12.0217 18.8041ZM12.41 14.6113C13.2952 15.2373 14.6463 15.5637 16.013 15.8787L13.9436 15.7003C13.5126 15.6623 13.5126 15.6623 13.2097 15.9621L11.7305 17.4116L12.6972 15.6927C12.8292 15.4613 12.8254 15.4727 12.6972 15.2336C12.5692 14.9946 12.4915 14.82 12.3905 14.6113H12.41ZM20.0818 19.2709L20.0508 19.4037L20.0275 19.2709L19.6393 17.4571C19.4839 16.7475 19.5422 16.7628 18.8356 16.5541L16.9758 16.0039C19.0197 16.3491 21.1091 16.3491 23.153 16.0039C20.3187 16.8538 20.707 16.4289 20.0818 19.2709ZM28.3168 18.8041L26.5968 19.1836C26.0766 19.2974 25.2496 19.1836 25.0127 18.7207L24.1585 17.0208C24.2323 18.1818 24.8729 19.5858 23.5102 19.8552L21.0021 20.7089C22.093 20.6254 23.0948 20.3295 23.5451 20.5913C24.0809 20.8873 23.7586 21.3768 23.5994 21.7296L21.367 26.7914C22.7841 24.2567 24.0226 22.3064 25.8087 20.6407C26.6083 19.9825 27.4458 19.3693 28.3168 18.8041Z" fill="#E12972"/>
</svg>
