<?xml version="1.0"?>
<svg width="362.4" height="274.36" xmlns="http://www.w3.org/2000/svg" xmlns:svg="http://www.w3.org/2000/svg" enable-background="new 0 0 362.4 274.36" version="1.0" xml:space="preserve">
 <style type="text/css">.st0{fill:#FFC800;}</style>
 <g class="layer">
  <title>Layer 1</title>
  <g id="layer1">
   <g id="g859" transform="matrix(4.49418 0 0 4.49418 -82.4464 49.9398)">
    <path class="st0" d="m58.66,48.64c16.37,0.23 29.83,-12.85 30.07,-29.22c-0.24,-16.37 -13.7,-29.45 -30.07,-29.22c-16.38,-0.23 -29.84,12.85 -30.08,29.22c0.24,16.37 13.7,29.45 30.08,29.22z" id="path849"/>
    <path d="m71.6,41.19c-10.21,5.73 -21.29,6.75 -28.37,3.32c9.41,5.43 20.98,5.52 30.47,0.22c9.37,-5.16 15.15,-15.05 15.04,-25.74c-0.48,7.66 -6.93,16.47 -17.14,22.2l0,0z" id="path851"/>
    <path d="m62.47,-7.66c2.07,3.48 -2.93,10.06 -11.18,14.68c-8.25,4.63 -16.61,5.55 -18.68,2.06c-0.09,-0.17 -0.17,-0.35 -0.23,-0.53c-0.39,-2.13 0.22,-4.31 1.65,-5.93c0.25,-0.35 0.51,-0.69 0.77,-1.02c2.42,-3.05 5.41,-5.6 8.81,-7.49c3.42,-1.92 7.19,-3.17 11.08,-3.67c0.44,-0.06 0.87,-0.11 1.29,-0.14c2.17,-0.39 4.4,0.18 6.11,1.57c0.15,0.15 0.27,0.31 0.38,0.47z" id="path853"/>
    <path d="m75.26,-3.89c3.62,6.08 -3.68,16.75 -16.29,23.82s-25.77,7.88 -29.38,1.8c-0.6,-1.02 -0.94,-2.17 -0.99,-3.36c-0.16,4.18 0.61,8.34 2.25,12.19c0.25,0.59 0.53,1.17 0.82,1.75l0.04,0.07c1.13,1.85 2.76,3.35 4.71,4.31c7.08,3.68 19.04,2.42 30.23,-3.86c11.17,-6.27 18.28,-15.7 18.55,-23.49c0.11,-2.13 -0.41,-4.25 -1.48,-6.1c-0.41,-0.6 -0.83,-1.18 -1.28,-1.73c-2.62,-3.28 -5.9,-5.96 -9.62,-7.88c0.99,0.62 1.83,1.47 2.44,2.48l0.01,0.01l-0.01,-0.01z" id="path855"/>
   </g>
  </g>
 </g>
</svg>