<svg width="20" height="16" viewBox="0 0 20 16" fill="none" xmlns="http://www.w3.org/2000/svg">
<path d="M0.00169373 4H19.9983C19.9902 2.83507 19.9434 2.16873 19.673 1.63803C19.3854 1.07354 18.9265 0.614601 18.362 0.32698C17.7202 0 16.8802 0 15.2 0H4.8C3.11984 0 2.27976 0 1.63803 0.32698C1.07354 0.614601 0.614601 1.07354 0.32698 1.63803C0.0565757 2.16873 0.00978898 2.83507 0.00169373 4Z" fill="black"/>
<path d="M20 6H0V11.2C0 12.8802 0 13.7202 0.32698 14.362C0.614601 14.9265 1.07354 15.3854 1.63803 15.673C2.27976 16 3.11984 16 4.8 16H15.2C16.8802 16 17.7202 16 18.362 15.673C18.9265 15.3854 19.3854 14.9265 19.673 14.362C20 13.7202 20 12.8802 20 11.2V6Z" fill="black"/>
</svg>
