<svg width="16" height="20" viewBox="0 0 16 20" fill="none" xmlns="http://www.w3.org/2000/svg">
<path fill-rule="evenodd" clip-rule="evenodd" d="M11 0H4.8C3.11984 0 2.27976 0 1.63803 0.32698C1.07354 0.614601 0.614601 1.07354 0.32698 1.63803C0 2.27976 0 3.11984 0 4.8V15.2C0 16.8802 0 17.7202 0.32698 18.362C0.614601 18.9265 1.07354 19.3854 1.63803 19.673C2.27976 20 3.11984 20 4.8 20H11.2C12.8802 20 13.7202 20 14.362 19.673C14.9265 19.3854 15.3854 18.9265 15.673 18.362C16 17.7202 16 16.8802 16 15.2V5L11 0ZM10 1.5V5.2C10 5.48003 10 5.62004 10.0545 5.727C10.1024 5.82108 10.1789 5.89757 10.273 5.9455C10.38 6 10.52 6 10.8 6H14.5L10 1.5ZM4 6C3.44772 6 3 6.44772 3 7C3 7.55228 3.44772 8 4 8H5C5.55228 8 6 7.55228 6 7C6 6.44772 5.55228 6 5 6H4ZM4 10C3.44772 10 3 10.4477 3 11C3 11.5523 3.44772 12 4 12H12C12.5523 12 13 11.5523 13 11C13 10.4477 12.5523 10 12 10H4ZM4 14C3.44772 14 3 14.4477 3 15C3 15.5523 3.44772 16 4 16H12C12.5523 16 13 15.5523 13 15C13 14.4477 12.5523 14 12 14H4Z" fill="black"/>
</svg>
