<svg width="24" height="24" viewBox="0 0 24 24" fill="none" xmlns="http://www.w3.org/2000/svg">
<g clip-path="url(#clip0_981_9603)">
<g clip-path="url(#clip1_981_9603)">
<path d="M-3.69141 0H28.3086V24H-3.69141" fill="#BD3D44"/>
<path d="M-3.69141 2.76562H28.3086H-3.69141ZM-3.69141 6.45062H28.3086H-3.69141ZM-3.69141 10.1506H28.3086H-3.69141ZM-3.69141 13.8506H28.3086H-3.69141ZM-3.69141 17.5506H28.3086H-3.69141ZM-3.69141 21.2506H28.3086H-3.69141Z" fill="#272727"/>
<path d="M-3.69141 2.76562H28.3086M-3.69141 6.45062H28.3086M-3.69141 10.1506H28.3086M-3.69141 13.8506H28.3086M-3.69141 17.5506H28.3086M-3.69141 21.2506H28.3086" stroke="white" stroke-width="1.3875"/>
<path d="M-3.69141 0H14.5486V13.1575H-3.69141" fill="#192F5D"/>
<g clip-path="url(#clip2_981_9603)">
<path d="M-0.678108 1.80078L-0.50625 2.33992H0.0500339L-0.39985 2.67291L-0.227992 3.21205L-0.678108 2.87882L-1.12799 3.21205L-0.956134 2.67291L-1.40625 2.33992H-0.849966L-0.678108 1.80078Z" fill="white"/>
<path d="M-0.678108 4.44727L-0.50625 4.9864H0.0500339L-0.39985 5.3194L-0.227992 5.85854L-0.678108 5.52531L-1.12799 5.85854L-0.956134 5.3194L-1.40625 4.9864H-0.849966L-0.678108 4.44727Z" fill="white"/>
<path d="M-0.678108 7.09375L-0.50625 7.63289H0.0500339L-0.39985 7.96588L-0.227992 8.50502L-0.678108 8.17179L-1.12799 8.50502L-0.956134 7.96588L-1.40625 7.63289H-0.849966L-0.678108 7.09375Z" fill="white"/>
<path d="M-0.678108 9.74414L-0.50625 10.2833H0.0500339L-0.39985 10.6163L-0.227992 11.1554L-0.678108 10.8222L-1.12799 11.1554L-0.956134 10.6163L-1.40625 10.2833H-0.849966L-0.678108 9.74414Z" fill="white"/>
<path d="M2.3922 1.80078L2.56406 2.33992H3.12035L2.67046 2.67291L2.84232 3.21205L2.3922 2.87882L1.94232 3.21205L2.11418 2.67291L1.66406 2.33992H2.22035L2.3922 1.80078Z" fill="white"/>
<path d="M2.3922 4.44727L2.56406 4.9864H3.12035L2.67046 5.3194L2.84232 5.85854L2.3922 5.52531L1.94232 5.85854L2.11418 5.3194L1.66406 4.9864H2.22035L2.3922 4.44727Z" fill="white"/>
<path d="M2.3922 7.09375L2.56406 7.63289H3.12035L2.67046 7.96588L2.84232 8.50502L2.3922 8.17179L1.94232 8.50502L2.11418 7.96588L1.66406 7.63289H2.22035L2.3922 7.09375Z" fill="white"/>
<path d="M2.3922 9.74414L2.56406 10.2833H3.12035L2.67046 10.6163L2.84232 11.1554L2.3922 10.8222L1.94232 11.1554L2.11418 10.6163L1.66406 10.2833H2.22035L2.3922 9.74414Z" fill="white"/>
<path d="M5.46252 1.80078L5.63461 2.33992H6.19066L5.74077 2.67291L5.91263 3.21205L5.46252 2.87882L5.01263 3.21205L5.18449 2.67291L4.73438 2.33992H5.29066L5.46252 1.80078Z" fill="white"/>
<path d="M5.46252 4.44727L5.63461 4.9864H6.19066L5.74077 5.3194L5.91263 5.85854L5.46252 5.52531L5.01263 5.85854L5.18449 5.3194L4.73438 4.9864H5.29066L5.46252 4.44727Z" fill="white"/>
<path d="M5.46252 7.09375L5.63461 7.63289H6.19066L5.74077 7.96588L5.91263 8.50502L5.46252 8.17179L5.01263 8.50502L5.18449 7.96588L4.73438 7.63289H5.29066L5.46252 7.09375Z" fill="white"/>
<path d="M5.46252 9.74414L5.63461 10.2833H6.19066L5.74077 10.6163L5.91263 11.1554L5.46252 10.8222L5.01263 11.1554L5.18449 10.6163L4.73438 10.2833H5.29066L5.46252 9.74414Z" fill="white"/>
<path d="M8.53088 1.80078L8.70297 2.33992H9.25925L8.80913 2.67291L8.98099 3.21205L8.53088 2.87882L8.08099 3.21205L8.25285 2.67291L7.80273 2.33992H8.35902L8.53088 1.80078Z" fill="white"/>
<path d="M8.53088 4.44727L8.70297 4.9864H9.25925L8.80913 5.3194L8.98099 5.85854L8.53088 5.52531L8.08099 5.85854L8.25285 5.3194L7.80273 4.9864H8.35902L8.53088 4.44727Z" fill="white"/>
<path d="M8.53088 7.09375L8.70297 7.63289H9.25925L8.80913 7.96588L8.98099 8.50502L8.53088 8.17179L8.08099 8.50502L8.25285 7.96588L7.80273 7.63289H8.35902L8.53088 7.09375Z" fill="white"/>
<path d="M8.53088 9.74414L8.70297 10.2833H9.25925L8.80913 10.6163L8.98099 11.1554L8.53088 10.8222L8.08099 11.1554L8.25285 10.6163L7.80273 10.2833H8.35902L8.53088 9.74414Z" fill="white"/>
<path d="M11.599 1.80078L11.7711 2.33992H12.3271L11.8773 2.67291L12.0491 3.21205L11.599 2.87882L11.1491 3.21205L11.321 2.67291L10.8711 2.33992H11.4271L11.599 1.80078Z" fill="white"/>
<path d="M11.599 4.44727L11.7711 4.9864H12.3271L11.8773 5.3194L12.0491 5.85854L11.599 5.52531L11.1491 5.85854L11.321 5.3194L10.8711 4.9864H11.4271L11.599 4.44727Z" fill="white"/>
<path d="M11.599 7.09375L11.7711 7.63289H12.3271L11.8773 7.96588L12.0491 8.50502L11.599 8.17179L11.1491 8.50502L11.321 7.96588L10.8711 7.63289H11.4271L11.599 7.09375Z" fill="white"/>
<path d="M11.599 9.74414L11.7711 10.2833H12.3271L11.8773 10.6163L12.0491 11.1554L11.599 10.8222L11.1491 11.1554L11.321 10.6163L10.8711 10.2833H11.4271L11.599 9.74414Z" fill="white"/>
<path d="M0.837517 0.447266L1.00938 0.98617H1.56566L1.11577 1.3194L1.28763 1.8583L0.837517 1.52531L0.387632 1.8583L0.559491 1.3194L0.109375 0.98617H0.665659L0.837517 0.447266Z" fill="white"/>
<path d="M0.837517 3.09375L1.00938 3.63289H1.56566L1.11577 3.96588L1.28763 4.50502L0.837517 4.17179L0.387632 4.50502L0.559491 3.96588L0.109375 3.63289H0.665659L0.837517 3.09375Z" fill="white"/>
<path d="M0.837517 5.74219L1.00938 6.28132H1.56566L1.11577 6.61432L1.28763 7.15346L0.837517 6.82023L0.387632 7.15346L0.559491 6.61432L0.109375 6.28132H0.665659L0.837517 5.74219Z" fill="white"/>
<path d="M0.837517 8.38867L1.00938 8.92781H1.56566L1.11577 9.26081L1.28763 9.79994L0.837517 9.46671L0.387632 9.79994L0.559491 9.26081L0.109375 8.92781H0.665659L0.837517 8.38867Z" fill="white"/>
<path d="M0.837517 11.0352L1.00938 11.5743H1.56566L1.11577 11.9073L1.28763 12.4464L0.837517 12.1132L0.387632 12.4464L0.559491 11.9073L0.109375 11.5743H0.665659L0.837517 11.0352Z" fill="white"/>
<path d="M3.94689 0.447266L4.11875 0.98617H4.67503L4.22515 1.3194L4.39701 1.8583L3.94689 1.52531L3.49701 1.8583L3.66887 1.3194L3.21875 0.98617H3.77503L3.94689 0.447266Z" fill="white"/>
<path d="M3.94689 3.09375L4.11875 3.63289H4.67503L4.22515 3.96588L4.39701 4.50502L3.94689 4.17179L3.49701 4.50502L3.66887 3.96588L3.21875 3.63289H3.77503L3.94689 3.09375Z" fill="white"/>
<path d="M3.94689 5.74219L4.11875 6.28132H4.67503L4.22515 6.61432L4.39701 7.15346L3.94689 6.82023L3.49701 7.15346L3.66887 6.61432L3.21875 6.28132H3.77503L3.94689 5.74219Z" fill="white"/>
<path d="M3.94689 8.38867L4.11875 8.92781H4.67503L4.22515 9.26081L4.39701 9.79994L3.94689 9.46671L3.49701 9.79994L3.66887 9.26081L3.21875 8.92781H3.77503L3.94689 8.38867Z" fill="white"/>
<path d="M3.94689 11.0352L4.11875 11.5743H4.67503L4.22515 11.9073L4.39701 12.4464L3.94689 12.1132L3.49701 12.4464L3.66887 11.9073L3.21875 11.5743H3.77503L3.94689 11.0352Z" fill="white"/>
<path d="M6.99572 0.447266L7.16758 0.98617H7.72386L7.27375 1.3194L7.4456 1.8583L6.99572 1.52531L6.5456 1.8583L6.71746 1.3194L6.26758 0.98617H6.82386L6.99572 0.447266Z" fill="white"/>
<path d="M6.99572 3.09375L7.16758 3.63289H7.72386L7.27375 3.96588L7.4456 4.50502L6.99572 4.17179L6.5456 4.50502L6.71746 3.96588L6.26758 3.63289H6.82386L6.99572 3.09375Z" fill="white"/>
<path d="M6.99572 5.74219L7.16758 6.28132H7.72386L7.27375 6.61432L7.4456 7.15346L6.99572 6.82023L6.5456 7.15346L6.71746 6.61432L6.26758 6.28132H6.82386L6.99572 5.74219Z" fill="white"/>
<path d="M6.99572 8.38867L7.16758 8.92781H7.72386L7.27375 9.26081L7.4456 9.79994L6.99572 9.46671L6.5456 9.79994L6.71746 9.26081L6.26758 8.92781H6.82386L6.99572 8.38867Z" fill="white"/>
<path d="M6.99572 11.0352L7.16758 11.5743H7.72386L7.27375 11.9073L7.4456 12.4464L6.99572 12.1132L6.5456 12.4464L6.71746 11.9073L6.26758 11.5743H6.82386L6.99572 11.0352Z" fill="white"/>
<path d="M10.0428 0.447266L10.2147 0.98617H10.771L10.3209 1.3194L10.4927 1.8583L10.0428 1.52531L9.59271 1.8583L9.76457 1.3194L9.31445 0.98617H9.87074L10.0428 0.447266Z" fill="white"/>
<path d="M10.0428 3.09375L10.2147 3.63289H10.771L10.3209 3.96588L10.4927 4.50502L10.0428 4.17179L9.59271 4.50502L9.76457 3.96588L9.31445 3.63289H9.87074L10.0428 3.09375Z" fill="white"/>
<path d="M10.0428 5.74219L10.2147 6.28132H10.771L10.3209 6.61432L10.4927 7.15346L10.0428 6.82023L9.59271 7.15346L9.76457 6.61432L9.31445 6.28132H9.87074L10.0428 5.74219Z" fill="white"/>
<path d="M10.0428 8.38867L10.2147 8.92781H10.771L10.3209 9.26081L10.4927 9.79994L10.0428 9.46671L9.59271 9.79994L9.76457 9.26081L9.31445 8.92781H9.87074L10.0428 8.38867Z" fill="white"/>
<path d="M10.0428 11.0352L10.2147 11.5743H10.771L10.3209 11.9073L10.4927 12.4464L10.0428 12.1132L9.59271 12.4464L9.76457 11.9073L9.31445 11.5743H9.87074L10.0428 11.0352Z" fill="white"/>
<path d="M13.152 0.447266L13.3241 0.98617H13.8803L13.4302 1.3194L13.6021 1.8583L13.152 1.52531L12.7021 1.8583L12.8739 1.3194L12.4238 0.98617H12.9801L13.152 0.447266Z" fill="white"/>
<path d="M13.152 3.09375L13.3241 3.63289H13.8803L13.4302 3.96588L13.6021 4.50502L13.152 4.17179L12.7021 4.50502L12.8739 3.96588L12.4238 3.63289H12.9801L13.152 3.09375Z" fill="white"/>
<path d="M13.152 5.74219L13.3241 6.28132H13.8803L13.4302 6.61432L13.6021 7.15346L13.152 6.82023L12.7021 7.15346L12.8739 6.61432L12.4238 6.28132H12.9801L13.152 5.74219Z" fill="white"/>
<path d="M13.152 8.38867L13.3241 8.92781H13.8803L13.4302 9.26081L13.6021 9.79994L13.152 9.46671L12.7021 9.79994L12.8739 9.26081L12.4238 8.92781H12.9801L13.152 8.38867Z" fill="white"/>
<path d="M13.152 11.0352L13.3241 11.5743H13.8803L13.4302 11.9073L13.6021 12.4464L13.152 12.1132L12.7021 12.4464L12.8739 11.9073L12.4238 11.5743H12.9801L13.152 11.0352Z" fill="white"/>
</g>
</g>
</g>
<defs>
<clipPath id="clip0_981_9603">
<rect width="24" height="24" rx="7.38462" fill="white"/>
</clipPath>
<clipPath id="clip1_981_9603">
<rect width="32" height="24" fill="white" transform="translate(-3.69141)"/>
</clipPath>
<clipPath id="clip2_981_9603">
<rect width="16.8" height="12" fill="white" transform="translate(-2.91797 0.447266)"/>
</clipPath>
</defs>
</svg>
