<svg width="20" height="16" viewBox="0 0 20 16" fill="none" xmlns="http://www.w3.org/2000/svg">
<path d="M8.87191 0.082992C8.52347 -0.000662141 8.16472 -0.000328357 7.75783 5.02521e-05L4.16146 0.000100797C3.63431 8.29155e-05 3.17955 6.74892e-05 2.80497 0.0306712C2.40963 0.0629722 2.01641 0.134288 1.63803 0.327082C1.07354 0.614702 0.614603 1.07364 0.326983 1.63813C0.134189 2.01651 0.062873 2.40973 0.030572 2.80507C-3.10596e-05 3.17964 -1.63023e-05 3.63439 8.04848e-07 4.16152V11.8386C-1.63023e-05 12.3658 -3.10596e-05 12.8206 0.030572 13.1951C0.062873 13.5905 0.134189 13.9837 0.326983 14.3621C0.614603 14.9266 1.07354 15.3855 1.63803 15.6731C2.01641 15.8659 2.40963 15.9372 2.80497 15.9695C3.17954 16.0001 3.6343 16.0001 4.16144 16.0001H15.8385C16.3657 16.0001 16.8205 16.0001 17.195 15.9695C17.5904 15.9372 17.9836 15.8659 18.362 15.6731C18.9265 15.3855 19.3854 14.9266 19.673 14.3621C19.8658 13.9837 19.9371 13.5905 19.9694 13.1951C20 12.8206 20 12.3658 20 11.8387V6.16154C20 5.6344 20 5.17964 19.9694 4.80507C19.9371 4.40973 19.8658 4.01651 19.673 3.63813C19.3854 3.07365 18.9265 2.6147 18.362 2.32708C17.9836 2.13429 17.5904 2.06297 17.195 2.03067C16.8205 2.00007 16.3657 2.00008 15.8385 2.0001L12.3255 2.0001C11.7887 2.0001 11.6833 1.99368 11.595 1.97247C11.4929 1.94798 11.3954 1.90757 11.3059 1.85274C11.2285 1.80528 11.1494 1.7353 10.7699 1.35574L10.5855 1.17131C10.298 0.883326 10.0446 0.629415 9.73907 0.442181C9.47065 0.277695 9.17802 0.156482 8.87191 0.082992Z" fill="black"/>
</svg>
