<svg width="22" height="20" viewBox="0 0 22 20" fill="none" xmlns="http://www.w3.org/2000/svg">
<path fill-rule="evenodd" clip-rule="evenodd" d="M12.2435 0.419979C11.4539 0.0605278 10.5473 0.0605278 9.75768 0.419979C9.19689 0.675258 8.80333 1.14398 8.47213 1.63408C8.14226 2.12219 7.78112 2.77884 7.34429 3.57311L1.70919 13.8187C1.29977 14.5631 0.959375 15.182 0.735835 15.6943C0.509586 16.2129 0.333942 16.7688 0.404448 17.3572C0.504565 18.1928 0.951037 18.9479 1.63493 19.4383C2.11656 19.7837 2.68826 19.8976 3.25167 19.9493C3.80833 20.0003 4.51462 20.0003 5.36413 20.0003H16.6371C17.4866 20.0003 18.1929 20.0003 18.7495 19.9493C19.3129 19.8976 19.8846 19.7837 20.3663 19.4383C21.0502 18.9479 21.4966 18.1928 21.5968 17.3572C21.6673 16.7688 21.4916 16.2129 21.2654 15.6943C21.0418 15.182 20.7015 14.5632 20.2921 13.8189L14.6569 3.57309C14.2201 2.77883 13.8589 2.12219 13.5291 1.63408C13.1979 1.14398 12.8043 0.675258 12.2435 0.419979ZM12.0006 8.00031C12.0006 7.44802 11.5529 7.00031 11.0006 7.00031C10.4483 7.00031 10.0006 7.44802 10.0006 8.00031V12.0003C10.0006 12.5526 10.4483 13.0003 11.0006 13.0003C11.5529 13.0003 12.0006 12.5526 12.0006 12.0003V8.00031ZM11.0006 14.0003C10.4483 14.0003 10.0006 14.448 10.0006 15.0003C10.0006 15.5526 10.4483 16.0003 11.0006 16.0003H11.0106C11.5629 16.0003 12.0106 15.5526 12.0106 15.0003C12.0106 14.448 11.5629 14.0003 11.0106 14.0003H11.0006Z" fill="black"/>
</svg>
