<svg width="20" height="20" viewBox="0 0 20 20" fill="none" xmlns="http://www.w3.org/2000/svg">
<path fill-rule="evenodd" clip-rule="evenodd" d="M2.56201 0.00071568C2.52956 0.00071568 2.49612 0.000545926 2.46181 0.000371761C2.0926 -0.00150221 1.62284 -0.0038864 1.20164 0.199221C0.849928 0.368816 0.531909 0.664398 0.337082 1.00278C0.104329 1.40703 0.0740685 1.84973 0.0506824 2.19186L0.0445595 2.27941C0.0150183 2.68282 0 3.0901 0 3.50072C0 12.6134 7.3873 20.0007 16.5 20.0007C16.9106 20.0007 17.3179 19.9857 17.7213 19.9562L17.8089 19.95C18.151 19.9266 18.5937 19.8964 18.9979 19.6636C19.3363 19.4688 19.6319 19.1508 19.8015 18.7991C20.0046 18.3779 20.0022 17.9081 20.0003 17.5389C20.0002 17.5172 20.0001 17.4959 20.0001 17.4749C20 17.4627 20 17.4506 20 17.4387V14.6214L20.0002 14.5358C20.0015 14.2267 20.0032 13.8386 19.8671 13.4842C19.7497 13.1785 19.559 12.9063 19.3118 12.6915C19.0253 12.4425 18.66 12.3114 18.369 12.2069L18.2885 12.1779L15.0555 11.0023C14.8575 10.9303 14.6611 10.8588 14.488 10.8101C14.2952 10.7558 14.0654 10.7095 13.8034 10.7265C13.434 10.7506 13.0786 10.8766 12.7766 11.0907C12.5624 11.2425 12.4132 11.4233 12.2976 11.5869C12.1939 11.7338 12.0864 11.913 11.978 12.0937L11.9702 12.1068L10.8766 13.8293C8.87078 12.7847 7.21773 11.1303 6.17169 9.12393L7.89392 8.03056L7.90701 8.02271C8.0877 7.91432 8.26692 7.80682 8.4138 7.7031C8.57746 7.58753 8.7582 7.4383 8.91006 7.22407C9.1241 6.92211 9.25015 6.56668 9.27418 6.19734C9.29123 5.9353 9.24489 5.70553 9.19061 5.51268C9.1419 5.33961 9.07047 5.14324 8.99844 4.94524L7.82278 1.71218L7.79377 1.6317C7.68933 1.3407 7.55826 0.975463 7.30926 0.68891C7.09445 0.441694 6.82222 0.251013 6.51647 0.133618C6.16208 -0.00245601 5.77404 -0.000825935 5.46487 0.00047285L5.37932 0.00071568H2.56201Z" fill="black"/>
</svg>
