<svg width="12" height="10" viewBox="0 0 12 10" fill="none" xmlns="http://www.w3.org/2000/svg">
<path d="M1.52658 3.89443C4.44178 2.62433 6.38571 1.787 7.35835 1.38244C10.1355 0.227347 10.7125 0.0266953 11.0886 0.0200696C11.1714 0.0186124 11.3563 0.039114 11.4761 0.136333C11.5773 0.218423 11.6051 0.329314 11.6185 0.407145C11.6318 0.484975 11.6484 0.662275 11.6352 0.800811C11.4847 2.38205 10.8335 6.21928 10.5022 7.99029C10.3621 8.73967 10.086 8.99094 9.81882 9.01553C9.35896 9.05785 8.98673 8.79248 8.57241 8.49711C8.46352 8.41948 8.35173 8.33978 8.23468 8.26305C7.77524 7.96189 7.42015 7.72007 7.06413 7.47762C6.73814 7.25562 6.41137 7.03309 6.00301 6.76399C5.15326 6.20402 5.50897 5.86111 5.98332 5.40383C6.06011 5.32981 6.14 5.25279 6.2184 5.17136C6.24683 5.14184 6.36514 5.03127 6.53792 4.87052C6.57779 4.83343 6.62069 4.79354 6.66593 4.75148C7.4401 4.03174 8.93608 2.64095 8.97383 2.48C8.98003 2.4536 8.98578 2.35518 8.9273 2.3032C8.86883 2.25123 8.78253 2.269 8.72026 2.28314C8.63198 2.30317 7.22597 3.2325 4.5022 5.07112C4.10311 5.34516 3.74162 5.47869 3.41774 5.47169C3.06069 5.46398 2.37386 5.26981 1.86328 5.10384C1.80248 5.08407 1.74289 5.06521 1.68488 5.04695C1.67138 5.0427 1.65788 5.03846 1.64456 5.03427C1.12559 4.87108 0.744488 4.75125 0.78264 4.44692C0.805214 4.26684 1.05319 4.08268 1.52658 3.89443Z" fill="#272727"/>
</svg>
