<svg width="22" height="20" viewBox="0 0 22 20" fill="none" xmlns="http://www.w3.org/2000/svg">
<path fill-rule="evenodd" clip-rule="evenodd" d="M12.2425 0.419979C11.4529 0.0605278 10.5463 0.0605278 9.7567 0.419979C9.19591 0.675258 8.80235 1.14398 8.47115 1.63408C8.14128 2.12219 7.78014 2.77884 7.34331 3.57311L1.70821 13.8187C1.29879 14.5631 0.958398 15.182 0.734858 15.6943C0.50861 16.2129 0.332966 16.7688 0.403472 17.3572C0.503588 18.1928 0.95006 18.9479 1.63396 19.4383C2.11559 19.7837 2.68728 19.8976 3.25069 19.9493C3.80735 20.0003 4.51364 20.0003 5.36316 20.0003H16.6361C17.4856 20.0003 18.1919 20.0003 18.7486 19.9493C19.312 19.8976 19.8837 19.7837 20.3653 19.4383C21.0492 18.9479 21.4957 18.1928 21.5958 17.3572C21.6663 16.7688 21.4906 16.2129 21.2644 15.6943C21.0409 15.182 20.7005 14.5632 20.2911 13.8189L14.6559 3.57309C14.2191 2.77883 13.858 2.12219 13.5281 1.63408C13.1969 1.14398 12.8033 0.675258 12.2425 0.419979ZM11.9996 8.00031C11.9996 7.44802 11.5519 7.00031 10.9996 7.00031C10.4473 7.00031 9.99963 7.44802 9.99963 8.00031V12.0003C9.99963 12.5526 10.4473 13.0003 10.9996 13.0003C11.5519 13.0003 11.9996 12.5526 11.9996 12.0003V8.00031ZM10.9996 14.0003C10.4473 14.0003 9.99963 14.448 9.99963 15.0003C9.99963 15.5526 10.4473 16.0003 10.9996 16.0003H11.0096C11.5619 16.0003 12.0096 15.5526 12.0096 15.0003C12.0096 14.448 11.5619 14.0003 11.0096 14.0003H10.9996Z" fill="black"/>
</svg>
