<svg width="18" height="20" viewBox="0 0 18 20" fill="none" xmlns="http://www.w3.org/2000/svg">
<path d="M1 0C0.656843 0 0.337652 0.175955 0.154445 0.466115C-0.0287625 0.756275 -0.0503941 1.12011 0.0971412 1.42993L3.84639 9.30334C3.92878 9.21317 4.01335 9.12523 4.1 9.0396C5.35331 7.80107 7.08842 7 9 7C10.9116 7 12.6467 7.80107 13.9 9.0396C13.9866 9.12523 14.0712 9.21318 14.1536 9.30335L17.9029 1.42993C18.0504 1.12011 18.0288 0.756275 17.8456 0.466115C17.6624 0.175955 17.3432 0 17 0H13C12.6212 0 12.275 0.214002 12.1056 0.552786L9 6.76393L5.89443 0.552786C5.72504 0.214002 5.37877 0 5 0H1Z" fill="black"/>
<path d="M9 20C12.3137 20 15 17.3137 15 14C15 10.6863 12.3137 8 9 8C5.68629 8 3 10.6863 3 14C3 17.3137 5.68629 20 9 20Z" fill="black"/>
</svg>
