<svg width="16" height="20" viewBox="0 0 16 20" fill="none" xmlns="http://www.w3.org/2000/svg">
<path fill-rule="evenodd" clip-rule="evenodd" d="M5.70711 0C4.98914 0 4.30058 0.285212 3.7929 0.792893C3.45227 1.13352 3.21179 1.55557 3.09041 2.0133C2.96427 2.0187 2.84451 2.02631 2.73139 2.03706C2.36128 2.07223 1.99353 2.14585 1.63803 2.32698C1.07354 2.6146 0.614603 3.07354 0.326983 3.63803C0.134189 4.01641 0.062873 4.40963 0.030572 4.80497C-3.10745e-05 5.17953 -1.63101e-05 5.63429 8.05438e-07 6.16142V15.8385C-1.63101e-05 16.3657 -3.10745e-05 16.8205 0.030572 17.195C0.062873 17.5904 0.134189 17.9836 0.326983 18.362C0.614604 18.9265 1.07355 19.3854 1.63803 19.673C2.01641 19.8658 2.40963 19.9371 2.80497 19.9694C3.17954 20 3.6343 20 4.16144 20H11.8386C12.3657 20 12.8205 20 13.195 19.9694C13.5904 19.9371 13.9836 19.8658 14.362 19.673C14.9265 19.3854 15.3854 18.9265 15.673 18.362C15.8658 17.9836 15.9371 17.5904 15.9694 17.195C16 16.8205 16 16.3657 16 15.8386V6.16148C16 5.63437 16 5.17952 15.9694 4.80497C15.9371 4.40963 15.8658 4.01641 15.673 3.63803C15.3854 3.07354 14.9265 2.6146 14.362 2.32698C14.0065 2.14585 13.6387 2.07223 13.2686 2.03706C13.1555 2.02631 13.0357 2.0187 12.9096 2.01331C12.7882 1.55558 12.5477 1.13352 12.2071 0.792893C11.6994 0.285212 11.0109 0 10.2929 0H5.70711ZM11 2.70711V4H5V2.70711C5 2.51957 5.0745 2.33972 5.20711 2.20711C5.33972 2.0745 5.51957 2 5.70711 2H10.2929C10.4804 2 10.6603 2.0745 10.7929 2.20711C10.9255 2.33972 11 2.51957 11 2.70711ZM3 9C3 8.44771 3.44772 8 4 8H12C12.5523 8 13 8.44771 13 9C13 9.55229 12.5523 10 12 10H4C3.44772 10 3 9.55229 3 9ZM3 13C3 12.4477 3.44772 12 4 12H8C8.55228 12 9 12.4477 9 13C9 13.5523 8.55228 14 8 14H4C3.44772 14 3 13.5523 3 13Z" fill="black"/>
</svg>
